<svg width="86" height="114" viewBox="0 0 86 114" fill="none" xmlns="http://www.w3.org/2000/svg">
<path fill-rule="evenodd" clip-rule="evenodd" d="M56.8945 16.8594C65.5315 6.68132 77.6566 1.37894 82.6394 0C84.795 3.49953 88.1149 13.3901 84.1502 24.9561C79.1945 39.4137 61.6612 67.6984 60.284 68.1061C60.207 68.1289 60.1459 68.2164 60.0987 68.3617L66.5433 97.4831L42.7219 90.9374C35.57 102.163 20.9263 119.589 17.7679 112.251C15.6314 107.288 18.3967 95.6642 21.8428 85.2004L0 79.1984L15.6292 70.1361C18.3495 68.2172 21.4216 66.2197 24.1064 64.4738C28.1365 61.8533 31.2944 59.7998 31.0813 59.431C30.5118 58.4449 46.0981 29.5819 56.8945 16.8594Z" fill="#434548"/>
</svg>
