<svg width="30" height="26" viewBox="0 0 30 26" fill="none" xmlns="http://www.w3.org/2000/svg">
<path d="M0 2.16667C0 0.968229 0.837891 0 1.875 0H24.375C25.4121 0 26.25 0.968229 26.25 2.16667C26.25 3.3651 25.4121 4.33333 24.375 4.33333H1.875C0.837891 4.33333 0 3.3651 0 2.16667ZM3.75 13C3.75 11.8016 4.58789 10.8333 5.625 10.8333H28.125C29.1621 10.8333 30 11.8016 30 13C30 14.1984 29.1621 15.1667 28.125 15.1667H5.625C4.58789 15.1667 3.75 14.1984 3.75 13ZM26.25 23.8333C26.25 25.0318 25.4121 26 24.375 26H1.875C0.837891 26 0 25.0318 0 23.8333C0 22.6349 0.837891 21.6667 1.875 21.6667H24.375C25.4121 21.6667 26.25 22.6349 26.25 23.8333Z" fill="black"/>
</svg>
